<svg id="SvgjsSvg1000" xmlns="http://www.w3.org/2000/svg" version="1.1" xmlns:xlink="http://www.w3.org/1999/xlink" xmlns:svgjs="http://svgjs.com/svgjs" width="117" height="108" viewBox="0 0 117 108"><defs id="SvgjsDefs1001"></defs><path id="SvgjsPath1007" d="M291.51 127.59L291.51 127.59C287.48 127.59 283.61 126.91 280.03 125.58C270.84 122.14 264.13 114.48 261.09 103.96C245.82999999999998 96.83 235.99999999999997 81.94999999999999 235.99999999999997 65.91999999999999C235.99999999999997 42.50999999999999 256.26 23.459999999999987 281.16999999999996 23.459999999999987C286.84999999999997 23.459999999999987 292.4 24.449999999999985 297.66999999999996 26.389999999999986C305.21 22.209999999999987 312.99999999999994 19.999999999999986 320.21 19.999999999999986C324.23999999999995 19.999999999999986 328.09 20.679999999999986 331.65 22.009999999999984C342.13 25.919999999999984 349.21 35.04999999999998 351.59 47.69999999999999C353.92999999999995 60.17999999999999 351.42999999999995 74.63 344.54999999999995 88.38999999999999C337.65999999999997 102.11999999999999 327.21 113.55999999999999 315.11999999999995 120.58999999999999C307.22999999999996 125.16999999999999 299.06999999999994 127.58999999999999 291.50999999999993 127.58999999999999 " fill="#ffffff" fill-opacity="1" transform="matrix(1,0,0,1,-236,-20)"></path><path id="SvgjsPath1008" d="M265.71 86.23C260.52 81.53 257.57 74.71000000000001 257.57 67.44C257.57 53.86 267.83 42.81999999999999 280.44 42.81999999999999C282.66 42.81999999999999 284.86 43.169999999999995 286.99 43.85999999999999C288.62 42.46999999999999 290.31 41.209999999999994 292.02 40.10999999999999L292.01 40.10999999999999C288.34999999999997 38.709999999999994 284.53 37.99999999999999 280.65999999999997 37.99999999999999C272.46 37.99999999999999 264.78 41.03999999999999 258.98999999999995 46.57999999999999C253.19999999999996 52.11999999999999 249.99999999999994 59.489999999999995 249.99999999999994 67.32999999999998C249.99999999999994 78.11999999999998 256.16999999999996 87.99999999999999 266.10999999999996 93.12999999999998C265.78999999999996 90.92999999999998 265.65 88.61999999999998 265.71 86.22999999999998 " fill="#e40429" fill-opacity="1" transform="matrix(1,0,0,1,-236,-20)"></path><path id="SvgjsPath1009" d="M290.53 67.13C290.53 73.58999999999999 294.09999999999997 79.22 299.34999999999997 82.14C297.27 85.17 294.51 87.69 291.40999999999997 89.43C288.11999999999995 91.23 284.59 92.16000000000001 280.89 92.16000000000001C280.41999999999996 92.16000000000001 279.94 92.14000000000001 279.43 92.10000000000001L279 92.07000000000001L279.18 92.46000000000001C279.90000000000003 94.00000000000001 280.78000000000003 95.4 281.81 96.65L281.89 96.74000000000001L282.01 96.74000000000001C286.90999999999997 96.60000000000001 291.57 95.4 295.84999999999997 93.18C299.93999999999994 91.03 303.54999999999995 87.98 306.23999999999995 84.34L306.34 84.21000000000001C306.75 84.24000000000001 307.15999999999997 84.27000000000001 307.57 84.27000000000001C316.98 84.27000000000001 324.62 76.59 324.62 67.13000000000001C324.62 57.66000000000001 316.98 50.000000000000014 307.57 50.000000000000014C298.17 50.000000000000014 290.53 57.66000000000001 290.53 67.13000000000001ZM305.14 63.41C305.08 63.54 305 63.589999999999996 304.90999999999997 63.589999999999996C304.83 63.589999999999996 304.74999999999994 63.58 304.64 63.489999999999995C303.89 62.88999999999999 303.15999999999997 62.559999999999995 302.39 62.559999999999995C300.53 62.559999999999995 299.34 64.14999999999999 299.34 66.82C299.34 69.30999999999999 300.53 70.78999999999999 302.40999999999997 70.78999999999999C303.13 70.78999999999999 303.84999999999997 70.58999999999999 304.58 70.1C304.69 70.02 304.8 69.97 304.85999999999996 69.97C304.96999999999997 69.97 305.03 70.02 305.08 70.15L305.71999999999997 71.67C305.79999999999995 71.83 305.83 71.9 305.83 71.96000000000001C305.83 72.21000000000001 305.46999999999997 72.50000000000001 304.8 72.78C304.02000000000004 73.14 302.99 73.35 301.94 73.35C298.27 73.35 296.17 70.83999999999999 296.17 66.80999999999999C296.17 62.55999999999999 298.53000000000003 60.12999999999999 302.36 60.12999999999999C303.71000000000004 60.12999999999999 305 60.51999999999999 305.86 61.15999999999999C306.05 61.319999999999986 306.16 61.44999999999999 306.16 61.569999999999986C306.16 61.649999999999984 306.13000000000005 61.77999999999999 306.08000000000004 61.859999999999985ZM317.96 70.85L317.21 72.57C317.10999999999996 72.8 317.01 72.88 316.75 72.88L308.81 72.88C308.43 72.88 308.37 72.83 308.37 72.44L308.37 70.8L314.4 62.58L313.59999999999997 63L309.32 63C308.90999999999997 63 308.88 62.97 308.88 62.56L308.88 61.010000000000005C308.88 60.620000000000005 308.94 60.57000000000001 309.32 60.57000000000001L317.14 60.57000000000001C317.5 60.57000000000001 317.55 60.620000000000005 317.55 61.010000000000005L317.55 62.74L311.6 70.74000000000001L312.32000000000005 70.33000000000001L317.62000000000006 70.33000000000001C317.90000000000003 70.33000000000001 318.0400000000001 70.41000000000001 318.0400000000001 70.59000000000002C318.0400000000001 70.62000000000002 318.0400000000001 70.67000000000002 318.0100000000001 70.72000000000001C318.0100000000001 70.72000000000001 317.98000000000013 70.77000000000001 317.9600000000001 70.85000000000001Z " fill="#e40429" fill-opacity="1" transform="matrix(1,0,0,1,-236,-20)"></path><path id="SvgjsPath1010" d="M297.44 51.19C299.23 49.72 301.33 48.629999999999995 303.6 48.059999999999995L303.59000000000003 48.05C302.26000000000005 46.589999999999996 300.75000000000006 45.23 299.11 44C297.35 45.08 295.64 46.36 294 47.81C295.24 48.800000000000004 296.39 49.940000000000005 297.44 51.190000000000005 " fill="#e40429" fill-opacity="1" transform="matrix(1,0,0,1,-236,-20)"></path><path id="SvgjsPath1011" d="M327.96 36.24C321.39 32.04 312.78999999999996 31.92 303.77 35.9C294.76 39.89 286.39 47.47 280.2 57.28C274.01 67.1 270.76 77.95 271.01 87.85C271.28 97.77 275.03999999999996 105.55 281.62 109.75999999999999C288.2 113.96 296.79 114.07999999999998 305.82 110.1C314.83 106.11999999999999 323.19 98.53 329.38 88.72C335.57 78.9 338.82 68.03999999999999 338.57 58.15C338.32 48.23 334.54 40.44 327.96 36.239999999999995ZM285.62 57.91C291.56 48.489999999999995 300.37 41.67999999999999 309.18 39.709999999999994C314.75 38.449999999999996 319.90000000000003 39.199999999999996 324.07 41.86999999999999C335.21 48.98999999999999 336.08 67.75999999999999 326.02 83.73999999999998C315.96 99.69999999999999 298.71 106.87999999999998 287.57 99.77999999999997C276.44 92.64999999999998 275.56 73.86999999999998 285.62 57.909999999999975Z " fill="#ffa300" fill-opacity="1" transform="matrix(1,0,0,1,-236,-20)"></path></svg>