<?xml version="1.0" encoding="utf-8"?>
<!-- Generator: Adobe Illustrator 18.1.1, SVG Export Plug-In . SVG Version: 6.00 Build 0)  -->
<!DOCTYPE svg PUBLIC "-//W3C//DTD SVG 1.1//EN" "http://www.w3.org/Graphics/SVG/1.1/DTD/svg11.dtd">
<svg version="1.1" id="Layer_1" xmlns="http://www.w3.org/2000/svg" xmlns:xlink="http://www.w3.org/1999/xlink" x="0px" y="0px"
	 viewBox="0 0 130 130" enable-background="new 0 0 130 130" xml:space="preserve">
<circle fill="#E6E6E6" cx="65" cy="65" r="65"/>
<g>
	<rect x="43.4" y="40.1" fill="#FFFFFF" width="43" height="51.4"/>
	<g>
		<g>
			<path d="M79,52.4h-28c-0.8,0-1.5-0.7-1.5-1.5s0.7-1.5,1.5-1.5h28c0.8,0,1.5,0.7,1.5,1.5S79.9,52.4,79,52.4z"/>
		</g>
		<g>
			<path d="M79,60.1h-28c-0.8,0-1.5-0.7-1.5-1.5s0.7-1.5,1.5-1.5h28c0.8,0,1.5,0.7,1.5,1.5S79.9,60.1,79,60.1z"/>
		</g>
		<g>
			<path d="M79,67.9h-28c-0.8,0-1.5-0.7-1.5-1.5c0-0.8,0.7-1.5,1.5-1.5h28c0.8,0,1.5,0.7,1.5,1.5C80.6,67.2,79.9,67.9,79,67.9z"/>
		</g>
		<g>
			<path d="M60.2,75.6h-9.2c-0.8,0-1.5-0.7-1.5-1.5s0.7-1.5,1.5-1.5h9.2c0.8,0,1.5,0.7,1.5,1.5S61.1,75.6,60.2,75.6z"/>
		</g>
		<g>
			<path d="M63.3,83.3H51.1c-0.8,0-1.5-0.7-1.5-1.5s0.7-1.5,1.5-1.5h12.2c0.8,0,1.5,0.7,1.5,1.5S64.1,83.3,63.3,83.3z"/>
		</g>
		<g>
			<path d="M84.9,40.4v49.5H45.2V40.4H84.9 M86.7,35.5H43.4c-1.7,0-3.1,1.4-3.1,3.1v53.2c0,1.7,1.4,3.1,3.1,3.1h43.3
				c1.7,0,3.1-1.4,3.1-3.1V38.6C89.8,36.9,88.4,35.5,86.7,35.5L86.7,35.5z"/>
		</g>
		<g>
			<g>
				<path d="M77.2,87.3c-2.7,0-4.2-1.3-4.6-4h-1.4V82h1.3c0-0.1,0-0.2,0-0.3c0-0.3,0-0.7,0-1h-1.3v-1.3h1.5c0.6-2.7,2.3-4.1,5-4.1
					c0.7,0,1.6,0.1,2.2,0.3l-0.4,1.9c-0.5-0.2-1.2-0.3-1.9-0.3c-1.4,0-2.2,0.7-2.6,2.3H78v1.3h-3c0,0.2,0,0.4,0,0.6
					c0,0.3,0,0.5,0,0.7h3v1.3h-2.9c0.3,1.5,1.1,2.2,2.6,2.2c0.7,0,1.4-0.2,2-0.4l0.4,1.7C79.2,87.2,78.3,87.3,77.2,87.3z"/>
			</g>
		</g>
	</g>
	<g>
		<path d="M31.9,42.1c-0.8,0-1.5-0.7-1.5-1.5V26.8c0-0.8,0.7-1.5,1.5-1.5h13.7c0.8,0,1.5,0.7,1.5,1.5s-0.7,1.5-1.5,1.5H33.4v12.2
			C33.4,41.4,32.7,42.1,31.9,42.1z"/>
	</g>
	<g>
		<path d="M45.6,104.7H31.9c-0.8,0-1.5-0.7-1.5-1.5V89.4c0-0.8,0.7-1.5,1.5-1.5s1.5,0.7,1.5,1.5v12.2h12.2c0.8,0,1.5,0.7,1.5,1.5
			S46.4,104.7,45.6,104.7z"/>
	</g>
	<g>
		<path d="M98.1,104.7H84.4c-0.8,0-1.5-0.7-1.5-1.5s0.7-1.5,1.5-1.5h12.2V89.4c0-0.8,0.7-1.5,1.5-1.5s1.5,0.7,1.5,1.5v13.7
			C99.6,104,98.9,104.7,98.1,104.7z"/>
	</g>
	<g>
		<path d="M98.1,42.1c-0.8,0-1.5-0.7-1.5-1.5V28.3H84.4c-0.8,0-1.5-0.7-1.5-1.5s0.7-1.5,1.5-1.5h13.7c0.8,0,1.5,0.7,1.5,1.5v13.7
			C99.6,41.4,98.9,42.1,98.1,42.1z"/>
	</g>
</g>
</svg>
