<?xml version="1.0" encoding="utf-8"?>
<!-- Generator: Adobe Illustrator 18.1.1, SVG Export Plug-In . SVG Version: 6.00 Build 0)  -->
<!DOCTYPE svg PUBLIC "-//W3C//DTD SVG 1.1//EN" "http://www.w3.org/Graphics/SVG/1.1/DTD/svg11.dtd">
<svg version="1.1" id="Layer_1" xmlns="http://www.w3.org/2000/svg" xmlns:xlink="http://www.w3.org/1999/xlink" x="0px" y="0px"
	 viewBox="0 0 130 130" enable-background="new 0 0 130 130" xml:space="preserve">
<circle fill="#E6E6E6" cx="65" cy="65" r="65"/>
<g>
	<circle fill="#FFFFFF" cx="65.3" cy="65.5" r="15.3"/>
	<path id="brightness-3-icon" d="M64.9,44.9c-11.1,0-20.1,9-20.1,20.1c0,11.1,9,20.1,20.1,20.1S85,76.1,85,65
		C85,53.9,76,44.9,64.9,44.9z M64.9,77.1c-6.7,0-12.1-5.4-12.1-12.1s5.4-12.1,12.1-12.1S77,58.3,77,65S71.6,77.1,64.9,77.1z
		 M43.8,49.5l-11-11l5.7-5.7l11,11C47.3,45.4,45.4,47.3,43.8,49.5z M80.4,43.9l11.1-11.1l5.7,5.7L86.1,49.6
		C84.5,47.4,82.6,45.5,80.4,43.9z M39,69H23.5V61H39c-0.2,1.3-0.3,2.7-0.3,4C38.7,66.4,38.8,67.7,39,69z M61,39.1V23.5H69v15.6
		c-1.3-0.2-2.7-0.3-4.1-0.3C63.6,38.8,62.3,38.9,61,39.1z M49.5,86.2l-11,11l-5.7-5.7l11-11C45.4,82.7,47.3,84.6,49.5,86.2z
		 M106.5,61V69H90.8c0.2-1.3,0.3-2.7,0.3-4c0-1.4-0.1-2.7-0.3-4H106.5z M69,90.9v15.6H61V90.9c1.3,0.2,2.6,0.3,3.9,0.3
		C66.3,91.2,67.7,91.1,69,90.9z M86.1,80.4l11.1,11.1l-5.7,5.7L80.4,86.1C82.6,84.5,84.5,82.6,86.1,80.4z"/>
</g>
</svg>
