<?xml version="1.0" encoding="utf-8"?>
<!-- Generator: Adobe Illustrator 18.1.1, SVG Export Plug-In . SVG Version: 6.00 Build 0)  -->
<!DOCTYPE svg PUBLIC "-//W3C//DTD SVG 1.1//EN" "http://www.w3.org/Graphics/SVG/1.1/DTD/svg11.dtd">
<svg version="1.1" id="Layer_1" xmlns="http://www.w3.org/2000/svg" xmlns:xlink="http://www.w3.org/1999/xlink" x="0px" y="0px"
	 viewBox="0 0 130 130" enable-background="new 0 0 130 130" xml:space="preserve">
<circle fill="#E6E6E6" cx="65" cy="65" r="65"/>
<g>
	<g>
		<g>
			<g>
				<rect x="41.9" y="90.5" fill="#FFFFFF" width="5.9" height="13.7"/>
				<path d="M47.8,105.7h-5.9c-0.8,0-1.5-0.7-1.5-1.5V90.5c0-0.8,0.7-1.5,1.5-1.5h5.9c0.8,0,1.5,0.7,1.5,1.5v13.7
					C49.3,105,48.7,105.7,47.8,105.7z M43.4,102.7h2.9V92h-2.9V102.7z"/>
			</g>
			<g>
				<rect x="82.2" y="90.5" fill="#FFFFFF" width="5.9" height="13.7"/>
				<path d="M88.1,105.7h-5.9c-0.8,0-1.5-0.7-1.5-1.5V90.5c0-0.8,0.7-1.5,1.5-1.5h5.9c0.8,0,1.5,0.7,1.5,1.5v13.7
					C89.6,105,88.9,105.7,88.1,105.7z M83.7,102.7h2.9V92h-2.9V102.7z"/>
			</g>
		</g>
		<g>
			<path d="M105.4,91.8H24.6c-1,0-1.8-0.7-1.7-1.5l8.8-63c0.1-0.8,0.9-1.5,1.7-1.5h63.1c0.8,0,1.6,0.7,1.7,1.5l9,63
				C107.2,91.1,106.5,91.8,105.4,91.8z M26.8,88.8h76.5l-8-60H34.5L26.8,88.8z"/>
		</g>
	</g>
	<g>
		<polygon fill="#FFFFFF" points="82.8,75.9 46.9,75.9 50,40.6 79.6,40.6 		"/>
		<g>
			<g>
				<path d="M74.7,49.9H55.2c-0.6,0-1-0.4-1-1s0.5-1,1.1-1h19.3c0.6,0,1.1,0.4,1.1,1C75.8,49.5,75.3,49.9,74.7,49.9z"/>
			</g>
			<g>
				<path d="M75,55H54.9c-0.6,0-1.1-0.4-1-1s0.5-1,1.1-1h19.9c0.6,0,1.1,0.4,1.1,1S75.6,55,75,55z"/>
			</g>
			<g>
				<path d="M75.3,60.1H54.6c-0.6,0-1.1-0.4-1.1-1s0.6-1,1.2-1h20.5c0.6,0,1.1,0.4,1.2,1C76.4,59.6,75.9,60.1,75.3,60.1z"/>
			</g>
			<g>
				<path d="M61.3,65.1h-7c-0.6,0-1.1-0.4-1.1-1s0.6-1,1.2-1h6.9c0.6,0,1.1,0.4,1.1,1C62.5,64.7,62,65.1,61.3,65.1z"/>
			</g>
			<g>
				<path d="M63.6,70.2h-9.5c-0.7,0-1.2-0.4-1.1-1s0.6-1,1.2-1h9.4c0.7,0,1.2,0.4,1.2,1C64.8,69.8,64.3,70.2,63.6,70.2z"/>
			</g>
			<g>
				<path d="M78.2,42.1l2.6,32.4H49.2l2.5-32.4H78.2 M79.1,38.9H50.8c-1.1,0-2.1,0.9-2.2,2l-3.4,34.8c-0.1,1.1,0.9,2,2.3,2h35.1
					c1.4,0,2.4-0.9,2.3-2l-3.5-34.8C81.2,39.8,80.2,38.9,79.1,38.9L79.1,38.9z"/>
			</g>
			<g>
				<path d="M74.6,72.8c-2.1,0-3.3-0.9-3.7-2.6h-1.1l0-0.9h1c0-0.1,0-0.1,0-0.2c0-0.2,0-0.4,0-0.6h-1l0-0.9H71
					c0.4-1.8,1.6-2.7,3.7-2.7c0.6,0,1.2,0.1,1.7,0.2l-0.2,1.2c-0.4-0.1-0.9-0.2-1.4-0.2c-1,0-1.7,0.5-1.9,1.5h2.2l0,0.9h-2.3
					c0,0.1,0,0.3,0,0.4c0,0.2,0,0.3,0,0.5H75l0,0.9h-2.2c0.3,1,0.9,1.4,2.1,1.4c0.5,0,1.1-0.1,1.5-0.2l0.4,1.1
					C76.2,72.7,75.5,72.8,74.6,72.8z"/>
			</g>
		</g>
	</g>
</g>
</svg>
